<svg width="290" height="37" viewBox="0 0 290 37" fill="none" xmlns="http://www.w3.org/2000/svg">
<path d="M0.974121 28.2683L9.21612 8.32316H11.7901L20.0581 28.2683H17.3281L9.97012 9.91878H11.0101L3.65212 28.2683H0.974121ZM4.48412 23.282L5.18612 21.0026H15.4301L16.1841 23.282H4.48412ZM30.5731 28.2683V8.32316H32.7051L44.7431 24.7067H43.6251V8.32316H46.2251V28.2683H44.0931L32.0551 11.8848H33.1731V28.2683H30.5731ZM67.6887 28.4963C66.302 28.4963 65.0107 28.2398 63.8147 27.727C62.636 27.2141 61.6133 26.5018 60.7467 25.59C59.88 24.6592 59.204 23.5765 58.7187 22.3418C58.2333 21.1071 57.9907 19.7584 57.9907 18.2957C57.9907 16.8332 58.2333 15.4845 58.7187 14.2497C59.204 13.0151 59.88 11.9418 60.7467 11.03C61.6133 10.0992 62.636 9.37741 63.8147 8.86453C64.9933 8.35165 66.2847 8.09521 67.6887 8.09521C69.0753 8.09521 70.3493 8.35165 71.5107 8.86453C72.6893 9.35841 73.712 10.0707 74.5787 11.0015C75.4627 11.9133 76.1387 12.9866 76.6067 14.2212C77.092 15.456 77.3347 16.8141 77.3347 18.2957C77.3347 19.7774 77.092 21.1356 76.6067 22.3703C76.1387 23.605 75.4627 24.6877 74.5787 25.6185C73.712 26.5303 72.6893 27.2426 71.5107 27.7555C70.3493 28.2494 69.0753 28.4963 67.6887 28.4963ZM67.6887 25.9604C68.694 25.9604 69.6213 25.7705 70.4707 25.3905C71.3373 25.0107 72.0827 24.4788 72.7067 23.7949C73.348 23.0921 73.842 22.2754 74.1887 21.3445C74.5527 20.4138 74.7347 19.3975 74.7347 18.2957C74.7347 17.194 74.5527 16.1778 74.1887 15.247C73.842 14.3162 73.348 13.5089 72.7067 12.8251C72.0827 12.1223 71.3373 11.5809 70.4707 11.2009C69.6213 10.8211 68.694 10.6311 67.6887 10.6311C66.666 10.6311 65.7213 10.8211 64.8547 11.2009C64.0053 11.5809 63.26 12.1223 62.6187 12.8251C61.9773 13.5089 61.4747 14.3162 61.1107 15.247C60.764 16.1778 60.5907 17.194 60.5907 18.2957C60.5907 19.3975 60.764 20.4138 61.1107 21.3445C61.4747 22.2754 61.9773 23.0921 62.6187 23.7949C63.26 24.4788 64.0053 25.0107 64.8547 25.3905C65.7213 25.7705 66.666 25.9604 67.6887 25.9604ZM115.017 16.9281H124.377V19.35H115.017V16.9281ZM115.251 25.7894H125.859V28.2683H112.651V8.32316H125.495V10.8021H115.251V25.7894ZM143.173 28.4963C141.786 28.4963 140.46 28.2683 139.195 27.8125C137.929 27.3376 136.933 26.7297 136.205 25.9889L137.167 23.7664C137.86 24.4313 138.744 24.9822 139.819 25.419C140.893 25.856 142.011 26.0744 143.173 26.0744C144.23 26.0744 145.088 25.9414 145.747 25.6755C146.405 25.4096 146.891 25.0486 147.203 24.5927C147.515 24.1179 147.671 23.586 147.671 22.9971C147.671 22.3133 147.463 21.7625 147.047 21.3445C146.648 20.9266 146.119 20.5943 145.461 20.3472C144.819 20.0814 144.109 19.8534 143.329 19.6634C142.549 19.4735 141.76 19.2551 140.963 19.0081C140.183 18.7422 139.463 18.4097 138.805 18.0108C138.163 17.6119 137.643 17.0801 137.245 16.4152C136.846 15.7314 136.647 14.8576 136.647 13.7938C136.647 12.7681 136.889 11.8278 137.375 10.973C137.877 10.0992 138.64 9.4059 139.663 8.89302C140.703 8.36115 142.02 8.09521 143.615 8.09521C144.672 8.09521 145.721 8.24718 146.761 8.55111C147.801 8.85503 148.702 9.29193 149.465 9.86179L148.607 12.1412C147.827 11.5714 147.003 11.163 146.137 10.916C145.27 10.6501 144.429 10.5171 143.615 10.5171C142.592 10.5171 141.751 10.6596 141.093 10.9445C140.434 11.2294 139.949 11.6094 139.637 12.0842C139.342 12.5592 139.195 13.091 139.195 13.6799C139.195 14.3828 139.394 14.9431 139.793 15.3609C140.209 15.7789 140.737 16.1113 141.379 16.3582C142.037 16.6052 142.757 16.8332 143.537 17.042C144.317 17.2321 145.097 17.4505 145.877 17.6974C146.674 17.9444 147.393 18.2672 148.035 18.6662C148.693 19.0651 149.222 19.597 149.621 20.2618C150.019 20.9266 150.219 21.7814 150.219 22.8262C150.219 23.8329 149.967 24.7732 149.465 25.647C148.962 26.5018 148.182 27.1951 147.125 27.727C146.085 28.2398 144.767 28.4963 143.173 28.4963ZM184.738 28.4963C183.351 28.4963 182.068 28.2494 180.89 27.7555C179.728 27.2426 178.714 26.5303 177.848 25.6185C176.998 24.6877 176.331 23.605 175.846 22.3703C175.36 21.1356 175.118 19.7774 175.118 18.2957C175.118 16.8141 175.36 15.456 175.846 14.2212C176.331 12.9866 177.007 11.9133 177.874 11.0015C178.74 10.0707 179.754 9.35841 180.916 8.86453C182.094 8.35165 183.377 8.09521 184.764 8.09521C186.168 8.09521 187.459 8.36115 188.638 8.89302C189.834 9.4059 190.848 10.1752 191.68 11.2009L189.99 12.996C189.296 12.1982 188.516 11.6094 187.65 11.2294C186.783 10.8306 185.856 10.6311 184.868 10.6311C183.845 10.6311 182.892 10.8211 182.008 11.2009C181.141 11.5809 180.387 12.1127 179.746 12.7966C179.104 13.4804 178.602 14.2973 178.238 15.247C177.891 16.1778 177.718 17.194 177.718 18.2957C177.718 19.3975 177.891 20.4233 178.238 21.373C178.602 22.3038 179.104 23.1111 179.746 23.7949C180.387 24.4788 181.141 25.0107 182.008 25.3905C182.892 25.7705 183.845 25.9604 184.868 25.9604C185.856 25.9604 186.783 25.7705 187.65 25.3905C188.516 24.9916 189.296 24.3839 189.99 23.567L191.68 25.362C190.848 26.3878 189.834 27.1666 188.638 27.6985C187.459 28.2304 186.159 28.4963 184.738 28.4963ZM216.241 8.32316H218.841V28.2683H216.241V8.32316ZM205.789 28.2683H203.189V8.32316H205.789V28.2683ZM216.475 19.3785H205.529V16.8996H216.475V19.3785ZM229.332 28.2683L237.574 8.32316H240.148L248.416 28.2683H245.686L238.328 9.91878H239.368L232.01 28.2683H229.332ZM232.842 23.282L233.544 21.0026H243.788L244.542 23.282H232.842ZM261.631 28.2683V10.8021H255.391V8.32316H270.445V10.8021H264.205V28.2683H261.631Z" fill="white"/>
<g filter="url(#filter0_d_2_2492)">
<path d="M92.7156 28.2679V21.3228L85.4875 8.32275H88.2696L94.095 18.8451L99.9436 8.32275H102.517L95.2896 21.3661V28.2679H92.7156Z" fill="#9D7AE5"/>
</g>
<defs>
<filter id="filter0_d_2_2492" x="79.4875" y="2.32275" width="29.0295" height="31.9453" filterUnits="userSpaceOnUse" color-interpolation-filters="sRGB">
<feFlood flood-opacity="0" result="BackgroundImageFix"/>
<feColorMatrix in="SourceAlpha" type="matrix" values="0 0 0 0 0 0 0 0 0 0 0 0 0 0 0 0 0 0 127 0" result="hardAlpha"/>
<feOffset/>
<feGaussianBlur stdDeviation="3"/>
<feComposite in2="hardAlpha" operator="out"/>
<feColorMatrix type="matrix" values="0 0 0 0 0.615686 0 0 0 0 0.478431 0 0 0 0 0.898039 0 0 0 1 0"/>
<feBlend mode="normal" in2="BackgroundImageFix" result="effect1_dropShadow_2_2492"/>
<feBlend mode="normal" in="SourceGraphic" in2="effect1_dropShadow_2_2492" result="shape"/>
</filter>
</defs>
</svg>
